<svg xmlns="http://www.w3.org/2000/svg" xmlns:xlink="http://www.w3.org/1999/xlink" id="Layer_1" x="0" y="0" enable-background="new 0 0 17 16.5" version="1.1" viewBox="0 0 17 16.5" xml:space="preserve"><path stroke="#FFF" stroke-linecap="round" stroke-linejoin="bevel" stroke-miterlimit="10" stroke-width="2" d="M15.9,14.5	c0,0.5-0.4,0.9-0.9,0.9H2c-0.5,0-0.9-0.4-0.9-0.9V2.3c0-0.5,0.4-0.9,0.9-0.9h13c0.5,0,0.9,0.4,0.9,0.9V14.5z"/><path d="M15.9,14.5c0,0.5-0.4,0.9-0.9,0.9H2c-0.5,0-0.9-0.4-0.9-0.9V2.3c0-0.5,0.4-0.9,0.9-0.9h13c0.5,0,0.9,0.4,0.9,0.9V14.5z"/></svg>